<svg xmlns="http://www.w3.org/2000/svg" xmlns:xlink="http://www.w3.org/1999/xlink" width="24" height="24" preserveAspectRatio="xMidYMid meet" viewBox="0 0 24 24" style="-ms-transform: rotate(360deg); -webkit-transform: rotate(360deg); transform: rotate(360deg);"><path d="M8 15c-1.1 0-2-.9-2-2s.9-2 2-2 2 .9 2 2-.9 2-2 2zm2.5 2l1.5-3 1.5 3h-3zm5.5-2c-1.1 0-2-.9-2-2s.9-2 2-2 2 .9 2 2-.9 2-2 2zm6-4c0-5.5-4.5-10-10-10S2 5.5 2 11c0 2.8 1.2 5.3 3 7.1V22h14v-3.9c1.8-1.8 3-4.3 3-7.1zm-5 9h-2v-2h-2v2h-2v-2H9v2H7v-2.8c-1.8-1.5-3-3.7-3-6.2 0-4.4 3.6-8 8-8s8 3.6 8 8c0 2.5-1.2 4.8-3 6.2V20z" fill="#626262"/><rect x="0" y="0" width="24" height="24" fill="rgba(255, 255, 255, 0)" /></svg>